<?xml version="1.0" encoding="UTF-8"?>
<svg id="Ebene_1" data-name="Ebene 1" xmlns="http://www.w3.org/2000/svg" viewBox="0 0 449.75 233.47">
  <defs>
    <style>
      .cls-1 {
        fill: none;
        isolation: isolate;
        opacity: .13;
        stroke: #717070;
        stroke-width: 8px;
      }
    </style>
  </defs>
  <g id="Gruppe_19" data-name="Gruppe 19">
    <line id="Linie_12" data-name="Linie 12" class="cls-1" x1="449.75" y1="45.25" x2=".82" y2="45.25"/>
    <line id="Linie_13" data-name="Linie 13" class="cls-1" x1="449.75" y1="27.11" x2=".82" y2="27.11"/>
    <line id="Linie_11" data-name="Linie 11" class="cls-1" x1="449.75" y1="12.38" x2=".82" y2="12.38"/>
    <path id="Pfad_8" data-name="Pfad 8" class="cls-1" d="m275.42,0v230.62"/>
    <line id="Linie_14" data-name="Linie 14" class="cls-1" x1="449.75" y1="110.27" x2=".82" y2="110.27"/>
    <line id="Linie_15" data-name="Linie 15" class="cls-1" x1="449.75" y1="125" x2=".82" y2="125"/>
    <line id="Linie_16" data-name="Linie 16" class="cls-1" x1="448.93" y1="139.73" y2="139.73"/>
    <line id="Linie_17" data-name="Linie 17" class="cls-1" x1="449.75" y1="154.46" x2=".82" y2="154.46"/>
    <line id="Linie_18" data-name="Linie 18" class="cls-1" x1="449.75" y1="172.59" x2=".82" y2="172.59"/>
    <line id="Linie_19" data-name="Linie 19" class="cls-1" x1="449.75" y1="190.72" x2=".82" y2="190.72"/>
    <line id="Linie_21" data-name="Linie 21" class="cls-1" x1="449.75" y1="208.85" x2=".82" y2="208.85"/>
    <path id="Pfad_4" data-name="Pfad 4" class="cls-1" d="m378.67,3.02v230.45"/>
    <path id="Pfad_1" data-name="Pfad 1" class="cls-1" d="m431.04,3.02v230.45"/>
    <path id="Pfad_2" data-name="Pfad 2" class="cls-1" d="m412.57,3.02v230.45"/>
    <path id="Pfad_3" data-name="Pfad 3" class="cls-1" d="m392.27,3.02v230.45"/>
    <path id="Pfad_6" data-name="Pfad 6" class="cls-1" d="m264.2,1.03v230.45"/>
    <path id="Pfad_5" data-name="Pfad 5" class="cls-1" d="m357.46,3.02v230.45"/>
    <path id="Pfad_7" data-name="Pfad 7" class="cls-1" d="m324.99,3.77v229.7"/>
    <path id="Pfad_9" data-name="Pfad 9" class="cls-1" d="m163.31,3.02v227.6"/>
  </g>
</svg>