<?xml version="1.0" encoding="UTF-8"?>
<svg id="Ebene_1" data-name="Ebene 1" xmlns="http://www.w3.org/2000/svg" viewBox="0 0 59.22 63">
  <defs>
    <style>
      .cls-1 {
        fill: #e6e009;
        stroke: #000;
        stroke-width: 3px;
      }
    </style>
  </defs>
  <path id="Icon_awesome-arrow-right" data-name="Icon awesome-arrow-right" class="cls-1" d="m25.4,5.52l2.78-3.05c1.02-1.17,2.8-1.3,3.98-.28.1.09.19.18.28.28l24.39,26.7c1.18,1.33,1.18,3.33,0,4.66l-24.39,26.71c-1.02,1.17-2.8,1.3-3.98.28-.1-.09-.19-.18-.28-.28l-2.79-3.05c-1.19-1.35-1.17-3.39.05-4.71l15.12-15.77H4.51c-1.74-.08-3.09-1.55-3.01-3.3,0,0,0,0,0,0v-4.4c-.08-1.74,1.27-3.22,3.01-3.3,0,0,0,0,0,0h36.06l-15.12-15.77c-1.23-1.32-1.25-3.36-.05-4.71Z"/>
</svg>