<?xml version="1.0" encoding="UTF-8"?>
<svg id="Ebene_1" data-name="Ebene 1" xmlns="http://www.w3.org/2000/svg" viewBox="0 0 100.28 98.14">
  <defs>
    <style>
      .cls-1 {
        stroke: #1b1e1b;
      }

      .cls-1, .cls-2 {
        fill: none;
      }

      .cls-1, .cls-3 {
        stroke-width: 2px;
      }

      .cls-4, .cls-5 {
        isolation: isolate;
      }

      .cls-5 {
        fill: #1b1e1b;
        font-family: GeneralSans-Semibold, 'General Sans';
        font-size: 18px;
        font-weight: 600;
      }

      .cls-2 {
        stroke-width: 0px;
      }

      .cls-6 {
        letter-spacing: -.01em;
      }

      .cls-3 {
        fill: #e6e009;
        stroke: #000;
      }

      .cls-7 {
        letter-spacing: 0em;
      }
    </style>
  </defs>
  <g id="Gruppe_17" data-name="Gruppe 17">
    <g id="Gruppe_9" data-name="Gruppe 9">
      <g id="Rechteck_8" data-name="Rechteck 8">
        <rect class="cls-2" x="14" width="73" height="70"/>
        <rect class="cls-1" x="15" y="1" width="71" height="68"/>
      </g>
      <path id="Icon_awesome-arrow-down" data-name="Icon awesome-arrow-down" class="cls-3" d="m63.8,32.64l1.56,1.56c.66.65.66,1.72,0,2.38,0,0,0,0,0,0l-13.66,13.67c-.65.66-1.72.66-2.38,0,0,0,0,0,0,0l-13.67-13.67c-.66-.65-.66-1.72,0-2.38,0,0,0,0,0,0l1.56-1.56c.66-.66,1.73-.66,2.39,0,0,0,.02.02.02.02l8.07,8.47v-20.21c0-.93.75-1.69,1.68-1.69,0,0,0,0,0,0h2.25c.93,0,1.69.75,1.69,1.68,0,0,0,0,0,.01v20.21l8.07-8.47c.64-.67,1.7-.7,2.37-.07.01.01.03.03.04.04h0Z"/>
    </g>
    <g id="Text">
      <g id="Scroll_down" data-name="Scroll down" class="cls-4">
        <text class="cls-5" transform="translate(0 94)"><tspan x="0" y="0">Sc</tspan><tspan class="cls-7" x="22.25" y="0">r</tspan><tspan x="29.52" y="0">oll d</tspan><tspan class="cls-6" x="64.75" y="0">o</tspan><tspan x="75.22" y="0">wn</tspan></text>
      </g>
    </g>
  </g>
</svg>